<svg xmlns="http://www.w3.org/2000/svg" width="16" height="11"><path fill="#272727" d="M10.525 1.093v.97h3.993v-.97zm2.024 3.329c.984 0 1.476.578 1.562 1.523h-3.187c.062-.938.687-1.523 1.625-1.523zm.125 4.57c-1.149 0-1.75-.673-1.75-1.813h5.14c.008-.118.016-.242.016-.367 0-2.11-1.234-3.868-3.469-3.868-2.172 0-3.648 1.633-3.648 3.774 0 2.218 1.398 3.742 3.648 3.742 1.703 0 2.805-.766 3.336-2.399h-1.726c-.188.61-.953.93-1.547.93zM2.244 8.6V5.89h2.36c.953 0 1.554.398 1.554 1.404 0 .993-.719 1.306-1.601 1.306zm0-4.196V2.11h2.031c.782 0 1.485.219 1.485 1.124 0 .836-.547 1.172-1.32 1.172zM.08.43v9.844h4.774c1.789 0 3.468-.859 3.468-2.86 0-1.233-.586-2.147-1.797-2.49.883-.424 1.344-1.064 1.344-2.056C7.87.905 6.41.429 4.721.429z"/><path fill="#909090" d="M10.525 1.093v.97h3.993v-.97zm2.024 3.329c.984 0 1.476.578 1.562 1.523h-3.187c.062-.938.687-1.523 1.625-1.523zm.125 4.57c-1.149 0-1.75-.673-1.75-1.813h5.14c.008-.118.016-.242.016-.367 0-2.11-1.234-3.868-3.469-3.868-2.172 0-3.648 1.633-3.648 3.774 0 2.218 1.398 3.742 3.648 3.742 1.703 0 2.805-.766 3.336-2.399h-1.726c-.188.61-.953.93-1.547.93zM2.244 8.6V5.89h2.36c.953 0 1.554.398 1.554 1.404 0 .993-.719 1.306-1.601 1.306zm0-4.196V2.11h2.031c.782 0 1.485.219 1.485 1.124 0 .836-.547 1.172-1.32 1.172zM.08.43v9.844h4.774c1.789 0 3.468-.859 3.468-2.86 0-1.233-.586-2.147-1.797-2.49.883-.424 1.344-1.064 1.344-2.056C7.87.905 6.41.429 4.721.429z"/></svg>