<svg xmlns="http://www.w3.org/2000/svg" width="30" height="26"><path fill="#141414" d="M15.471 11.754a.53.53 0 01-.535.536c-.888 0-1.607.72-1.607 1.606a.529.529 0 01-.536.536.529.529 0 01-.536-.536 2.687 2.687 0 012.679-2.677c.3 0 .535.234.535.535zm3.75 2.176a4.293 4.293 0 00-4.285-4.285 4.293 4.293 0 00-4.286 4.285 4.294 4.294 0 004.286 4.286 4.294 4.294 0 004.285-4.286zM2.08 23.538v-2.142h25.71v2.142zm19.282-9.608a6.43 6.43 0 01-6.427 6.428 6.43 6.43 0 01-6.428-6.428 6.43 6.43 0 016.428-6.427 6.43 6.43 0 016.427 6.427zM4.223 3.183V1.041h6.427v2.142zM2.08 6.398V4.255h10.78l1.071-2.142h13.86v4.285zm27.854-4.285c0-1.19-.955-2.144-2.143-2.144H2.081A2.137 2.137 0 00-.063 2.113v21.425c0 1.189.954 2.143 2.142 2.143H27.79a2.136 2.136 0 002.143-2.143z"/></svg>