<svg xmlns="http://www.w3.org/2000/svg" width="28" height="28"><path fill="#141414" d="M24.761 4.648l-1.79-1.79-4.905 4.904 1.79 1.79zm2.277.753L5.512 26.928a1.05 1.05 0 01-.754.302 1.05 1.05 0 01-.753-.302L.691 23.614a1.051 1.051 0 01-.302-.754c0-.285.1-.552.302-.754L22.217.581c.2-.202.469-.3.753-.3.285 0 .553.098.753.3l3.315 3.314c.2.2.301.47.301.753 0 .285-.1.552-.301.753zM6.365 1.97l-1.64.503-.502 1.641-.503-1.64-1.64-.504 1.64-.501.503-1.64.502 1.64zm7.5 3.214l-3.282 1.005-1.003 3.28-1.005-3.281-3.281-1.005 3.28-1.004L9.58.899l1.004 3.28zm13.926 7.5l-1.64.502-.503 1.641-.502-1.641-1.64-.502 1.64-.502.502-1.64.503 1.64zM17.078 1.97l-1.64.503-.502 1.641-.503-1.64-1.64-.504 1.64-.501.503-1.64.502 1.64z"/></svg>