<svg xmlns="http://www.w3.org/2000/svg" width="35" height="28"><path fill="#141414" d="M3.486 10.684h5.407l5.021 11.13zm13.592 12.922l-5.842-12.922H22.92zM8.943 8.54H3.151l4.821-6.429h4.386zm11.299 13.273l5.021-11.13h5.407zM11.37 8.541l3.415-6.429h4.586l3.415 6.429zm13.843 0L21.8 2.112h4.385l4.82 6.429zm2.36-8.136a1.035 1.035 0 00-.853-.435H7.437c-.335 0-.653.151-.854.435L.155 8.975c-.318.403-.284.988.067 1.374l16.07 17.14c.2.217.485.334.786.334.301 0 .586-.117.787-.334l16.07-17.14c.35-.386.384-.971.066-1.373z"/></svg>