<svg xmlns="http://www.w3.org/2000/svg" width="12" height="13"><path fill="#272727" d="M8.08 11.164a5.17 5.17 0 01-2 .405 5.15 5.15 0 01-3.266-1.17s.07.046.118.085c.984-2.14 4.023-3.204 4.023-3.204.008 0 .023-.007.031-.007a21.612 21.612 0 011.094 3.89zM6.635 6.42c-.063.023-.133.039-.203.062 0 0-2.766.891-4.164 3.383A5.12 5.12 0 01.955 6.444c0-.054 0-.11.008-.163.086 0 2.617.062 5.258-.727.148.29.289.578.414.867zm-.836-1.657c-2.461.649-4.602.626-4.735.626a5.135 5.135 0 012.829-3.58 31.14 31.14 0 011.906 2.954zm5.344 2.494a5.142 5.142 0 01-2.196 3.436 22.871 22.871 0 00-1-3.663c1.657-.258 3.086.195 3.196.227zm-6.29-5.79c-.007 0-.015.008-.015.008.008-.008.008-.008.016-.008zM9.463 2.6c-.016.024-.742 1.133-2.672 1.851a24.91 24.91 0 00-1.922-2.984c.39-.094.797-.15 1.211-.15 1.297 0 2.484.487 3.383 1.283zm1.742 3.79c-.062-.009-1.805-.39-3.57-.165-.04-.086-.07-.18-.11-.265-.11-.25-.226-.501-.343-.743 2.023-.828 2.843-2.016 2.859-2.031a5.139 5.139 0 011.164 3.203zm.875.053a6 6 0 00-6-5.999 6 6 0 106 6z"/><path fill="#909090" d="M8.08 11.164a5.17 5.17 0 01-2 .405 5.15 5.15 0 01-3.266-1.17s.07.046.118.085c.984-2.14 4.023-3.204 4.023-3.204.008 0 .023-.007.031-.007a21.612 21.612 0 011.094 3.89zM6.635 6.42c-.063.023-.133.039-.203.062 0 0-2.766.891-4.164 3.383A5.12 5.12 0 01.955 6.444c0-.054 0-.11.008-.163.086 0 2.617.062 5.258-.727.148.29.289.578.414.867zm-.836-1.657c-2.461.649-4.602.626-4.735.626a5.135 5.135 0 012.829-3.58 31.14 31.14 0 011.906 2.954zm5.344 2.494a5.142 5.142 0 01-2.196 3.436 22.871 22.871 0 00-1-3.663c1.657-.258 3.086.195 3.196.227zm-6.29-5.79c-.007 0-.015.008-.015.008.008-.008.008-.008.016-.008zM9.463 2.6c-.016.024-.742 1.133-2.672 1.851a24.91 24.91 0 00-1.922-2.984c.39-.094.797-.15 1.211-.15 1.297 0 2.484.487 3.383 1.283zm1.742 3.79c-.062-.009-1.805-.39-3.57-.165-.04-.086-.07-.18-.11-.265-.11-.25-.226-.501-.343-.743 2.023-.828 2.843-2.016 2.859-2.031a5.139 5.139 0 011.164 3.203zm.875.053a6 6 0 00-6-5.999 6 6 0 106 6z"/></svg>