<svg xmlns="http://www.w3.org/2000/svg" width="13" height="14"><path fill="#272727" d="M8.236 10.242c0 .476-.14.945-.375 1.352-.804 1.367-2.484 1.85-3.976 1.85-1.172 0-2.617-.304-3.266-1.398a1.963 1.963 0 01-.289-1.023c0-.883.547-1.617 1.274-2.071.914-.57 2.101-.71 3.156-.78-.274-.36-.492-.68-.492-1.15 0-.25.07-.445.164-.663-.18.015-.352.031-.532.031-1.523 0-2.742-1.109-2.742-2.664 0-.86.406-1.703 1.055-2.266C3.057.734 4.252.444 5.338.444h3.266l-1.079.689H6.502c.727.616 1.172 1.304 1.172 2.289 0 2.022-1.852 2.249-1.852 3.24 0 1.032 2.414 1.377 2.414 3.58zm-2.43-4.798c.32-.344.415-.78.415-1.242 0-1.156-.68-3.117-2.086-3.117-.438 0-.89.218-1.156.563-.282.351-.368.812-.368 1.25 0 1.171.664 3.016 2.07 3.016.391 0 .852-.189 1.126-.47zm1.32 5.461c0-1.054-1.046-1.695-1.804-2.241-.125-.016-.25-.016-.375-.016-1.273 0-3.164.406-3.164 2.015 0 1.523 1.649 2.071 2.914 2.071 1.157 0 2.43-.485 2.43-1.829zM12.69 5.89v.843h-1.664v1.712h-.82V6.733H8.549V5.89h1.656V4.195h.82V5.89z"/><path fill="#909090" d="M8.236 10.242c0 .476-.14.945-.375 1.352-.804 1.367-2.484 1.85-3.976 1.85-1.172 0-2.617-.304-3.266-1.398a1.963 1.963 0 01-.289-1.023c0-.883.547-1.617 1.274-2.071.914-.57 2.101-.71 3.156-.78-.274-.36-.492-.68-.492-1.15 0-.25.07-.445.164-.663-.18.015-.352.031-.532.031-1.523 0-2.742-1.109-2.742-2.664 0-.86.406-1.703 1.055-2.266C3.057.734 4.252.444 5.338.444h3.266l-1.079.689H6.502c.727.616 1.172 1.304 1.172 2.289 0 2.022-1.852 2.249-1.852 3.24 0 1.032 2.414 1.377 2.414 3.58zm-2.43-4.798c.32-.344.415-.78.415-1.242 0-1.156-.68-3.117-2.086-3.117-.438 0-.89.218-1.156.563-.282.351-.368.812-.368 1.25 0 1.171.664 3.016 2.07 3.016.391 0 .852-.189 1.126-.47zm1.32 5.461c0-1.054-1.046-1.695-1.804-2.241-.125-.016-.25-.016-.375-.016-1.273 0-3.164.406-3.164 2.015 0 1.523 1.649 2.071 2.914 2.071 1.157 0 2.43-.485 2.43-1.829zM12.69 5.89v.843h-1.664v1.712h-.82V6.733H8.549V5.89h1.656V4.195h.82V5.89z"/></svg>