<svg xmlns="http://www.w3.org/2000/svg" width="24" height="21"><path fill="#909090" d="M7.297.688L10.463 3.9l-9.254 9.391-1.217-1.235 1.217-5.19.73-.742 2.436-2.471zm13.29 2.268c.177 0 .354.067.488.203l1.46 1.483a.708.708 0 010 .99L20.1 3.158a.683.683 0 01.488-.203s-.177 0 0 0zm-17.186 0a.68.68 0 01.487.203L1.453 5.631a.71.71 0 010-.989l1.46-1.483a.683.683 0 01.488-.203s-.176 0 0 0zM15.96 7.36l2.435 2.471-3.967 4.026 4.07 4.13a.71.71 0 010 .989l-1.461 1.482a.681.681 0 01-.974 0l-4.07-4.13-4.07 4.13a.68.68 0 01-.973 0l-1.462-1.482a.709.709 0 010-.99l4.07-4.13-3.966-4.025L8.027 7.36l3.966 4.025zm.73-6.673l2.922 2.966 2.436 2.47.73.743 1.218 5.19-1.218 1.235L13.524 3.9z"/></svg>