<svg xmlns="http://www.w3.org/2000/svg" width="24" height="21"><path fill="#909090" d="M7.297.688L10.463 3.9l-9.254 9.39-1.217-1.235 1.217-5.19.73-.74 2.436-2.473zm13.29 2.267a.68.68 0 01.488.204l1.46 1.483a.707.707 0 010 .989L20.1 3.159a.682.682 0 01.488-.204s-.177 0 0 0zm-17.186 0a.68.68 0 01.487.204L1.453 5.631a.709.709 0 010-.989l1.46-1.483a.681.681 0 01.488-.204s-.176 0 0 0zm12.56 4.406l2.435 2.47-3.967 4.027 4.07 4.13a.71.71 0 010 .99l-1.461 1.482a.683.683 0 01-.974 0l-4.07-4.131-4.07 4.131a.683.683 0 01-.973 0l-1.462-1.483a.709.709 0 010-.989l4.07-4.13-3.966-4.026L8.028 7.36l3.966 4.025zm.73-6.673l2.922 2.965 2.436 2.472.73.74 1.218 5.191-1.218 1.235-9.254-9.39z"/><path fill="#fff" d="M7.297.688L10.463 3.9l-9.254 9.39-1.217-1.235 1.217-5.19.73-.74 2.436-2.473zm13.29 2.267a.68.68 0 01.488.204l1.46 1.483a.707.707 0 010 .989L20.1 3.159a.682.682 0 01.488-.204s-.177 0 0 0zm-17.186 0a.68.68 0 01.487.204L1.453 5.631a.709.709 0 010-.989l1.46-1.483a.681.681 0 01.488-.204s-.176 0 0 0zm12.56 4.406l2.435 2.47-3.967 4.027 4.07 4.13a.71.71 0 010 .99l-1.461 1.482a.683.683 0 01-.974 0l-4.07-4.131-4.07 4.131a.683.683 0 01-.973 0l-1.462-1.483a.709.709 0 010-.989l4.07-4.13-3.966-4.026L8.028 7.36l3.966 4.025zm.73-6.673l2.922 2.965 2.436 2.472.73.74 1.218 5.191-1.218 1.235-9.254-9.39z"/></svg>