<svg xmlns="http://www.w3.org/2000/svg" width="28" height="42"><path fill="#f6b138" d="M13.813 21.155c-1.893 0-3.51-.669-4.849-2.01-1.339-1.338-2.009-2.954-2.009-4.848 0-1.892.67-3.507 2.01-4.847 1.339-1.34 2.955-2.008 4.848-2.008 1.892 0 3.509.669 4.848 2.008 1.34 1.34 2.009 2.955 2.009 4.847 0 1.894-.67 3.51-2.01 4.849-1.338 1.34-2.955 2.009-4.847 2.009zm9.696-16.553C20.831 1.924 17.6.584 13.813.584c-3.786 0-7.018 1.34-9.697 4.018C1.438 7.28.098 10.512.098 14.297c0 1.948.295 3.546.884 4.796l9.777 20.732c.268.59.683 1.054 1.246 1.392a3.447 3.447 0 003.616 0 3.245 3.245 0 001.272-1.392l9.75-20.732c.59-1.25.884-2.848.884-4.796 0-3.784-1.34-7.017-4.018-9.695z"/></svg>