<svg xmlns="http://www.w3.org/2000/svg" width="49" height="38"><path fill="#f6b138" d="M45.13 34.043a.82.82 0 01-.603.255H5.098a.819.819 0 01-.602-.255.82.82 0 01-.255-.603V12.87a15.626 15.626 0 001.848 1.767c4.786 3.68 8.59 6.696 11.411 9.054.91.768 1.651 1.367 2.223 1.795.571.428 1.344.862 2.317 1.3.973.436 1.889.655 2.746.655h.053c.857 0 1.772-.219 2.746-.656.973-.437 1.745-.871 2.317-1.299a52.39 52.39 0 002.223-1.795c2.821-2.358 6.625-5.375 11.41-9.054a15.698 15.698 0 001.849-1.767v20.57a.822.822 0 01-.255.603zm-.992-25.231c-.83 1.294-1.727 2.326-2.692 3.093a3715.57 3715.57 0 00-10.74 8.491l-.938.79c-.518.438-.929.772-1.232 1.005-.304.233-.701.513-1.192.845a7.229 7.229 0 01-1.353.736c-.41.16-.795.24-1.152.24h-.053a3.18 3.18 0 01-1.152-.24 7.204 7.204 0 01-1.353-.736 24.647 24.647 0 01-1.192-.845 34.84 34.84 0 01-1.232-1.004l-.937-.79a3828.18 3828.18 0 00-10.741-8.492C5.554 9.834 4.24 7.3 4.24 4.298c0-.232.085-.433.255-.603a.826.826 0 01.602-.253h39.429c.142 0 .268.022.375.067a.488.488 0 01.24.2c.054.09.103.17.148.24a.75.75 0 01.08.336c.01.152.014.267.014.348v.657c0 1.053-.415 2.227-1.246 3.522zm3.416-7.54c-.84-.84-1.849-1.26-3.027-1.26H5.098c-1.178 0-2.187.42-3.027 1.26C1.231 2.11.813 3.12.813 4.297V33.44c0 1.18.419 2.188 1.258 3.028.84.839 1.849 1.26 3.027 1.26h39.429c1.178 0 2.187-.421 3.027-1.26.839-.84 1.258-1.848 1.258-3.028V4.298c0-1.178-.42-2.187-1.258-3.027z"/></svg>