<svg xmlns="http://www.w3.org/2000/svg" width="21" height="35"><path fill="#f6b138" d="M10.813 33.012c-.59 0-1.094-.21-1.514-.629-.42-.42-.63-.924-.63-1.513 0-.59.21-1.094.63-1.514.42-.419.925-.629 1.514-.629.59 0 1.093.21 1.513.63.42.419.63.923.63 1.513 0 .589-.21 1.094-.63 1.513-.42.42-.924.63-1.513.63zm7.46-5.825a.828.828 0 01-.603.254H3.956a.827.827 0 01-.603-.254.826.826 0 01-.254-.604V7.727a.82.82 0 01.254-.602c.17-.17.37-.255.603-.255H17.67c.232 0 .433.085.603.255.17.17.254.37.254.602v18.856a.828.828 0 01-.254.604zM8.67 4.297c-.286 0-.429-.141-.429-.428 0-.285.143-.427.429-.427h4.286c.285 0 .428.142.428.427 0 .287-.143.429-.428.429zM20.08 1.03C19.403.352 18.599.012 17.67.012H3.956c-.93 0-1.733.34-2.411 1.018C.866 1.71.527 2.513.527 3.442V30.87c0 .928.34 1.731 1.018 2.41.678.679 1.482 1.018 2.41 1.018H17.67c.928 0 1.732-.34 2.41-1.017.68-.68 1.019-1.483 1.019-2.41V3.44c0-.928-.34-1.732-1.018-2.41z"/></svg>