<svg xmlns="http://www.w3.org/2000/svg" width="10" height="14"><path fill="#272727" d="M.08 5.109c0 1.023.406 2.516 1.524 2.85.039.009.093.025.132.025.258 0 .407-.718.407-.923 0-.242-.618-.757-.618-1.764 0-2.095 1.594-3.578 3.657-3.578 1.773 0 3.086 1.007 3.086 2.86 0 1.382-.555 3.976-2.352 3.976-.648 0-1.203-.47-1.203-1.141 0-.986.687-1.938.687-2.954 0-.618-.351-1.117-1.007-1.117-.891 0-1.438 1-1.438 1.79 0 .437.055.92.25 1.32-.36 1.546-1.094 3.85-1.094 5.445 0 .493.07.976.117 1.469l.07.077.11-.038c1.313-1.798 1.266-2.149 1.86-4.5.32.61 1.148.937 1.804.937 2.766 0 4.008-2.695 4.008-5.125 0-2.585-2.234-4.274-4.687-4.274C2.72.444.08 2.225.08 5.109z"/><path fill="#909090" d="M.08 5.109c0 1.023.406 2.516 1.524 2.85.039.009.093.025.132.025.258 0 .407-.718.407-.923 0-.242-.618-.757-.618-1.764 0-2.095 1.594-3.578 3.657-3.578 1.773 0 3.086 1.007 3.086 2.86 0 1.382-.555 3.976-2.352 3.976-.648 0-1.203-.47-1.203-1.141 0-.986.687-1.938.687-2.954 0-.618-.351-1.117-1.007-1.117-.891 0-1.438 1-1.438 1.79 0 .437.055.92.25 1.32-.36 1.546-1.094 3.85-1.094 5.445 0 .493.07.976.117 1.469l.07.077.11-.038c1.313-1.798 1.266-2.149 1.86-4.5.32.61 1.148.937 1.804.937 2.766 0 4.008-2.695 4.008-5.125 0-2.585-2.234-4.274-4.687-4.274C2.72.444.08 2.225.08 5.109z"/></svg>