<svg xmlns="http://www.w3.org/2000/svg" width="13" height="11"><path fill="#272727" d="M12.736 1.632a5.062 5.062 0 01-1.453.392 2.525 2.525 0 001.11-1.392c-.485.29-1.032.5-1.602.61A2.518 2.518 0 008.947.445a2.522 2.522 0 00-2.523 2.523c0 .196.023.391.062.579A7.177 7.177 0 011.283.905a2.524 2.524 0 00.781 3.376 2.548 2.548 0 01-1.14-.32v.03c0 1.227.867 2.243 2.023 2.478a2.657 2.657 0 01-1.14.046c.32 1 1.25 1.727 2.359 1.75a5.052 5.052 0 01-3.133 1.078c-.21 0-.406-.009-.61-.032A7.12 7.12 0 004.3 10.445c4.64 0 7.18-3.844 7.18-7.18 0-.11 0-.218-.008-.328a5.409 5.409 0 001.265-1.305z"/><path fill="#909090" d="M12.736 1.632a5.062 5.062 0 01-1.453.392 2.525 2.525 0 001.11-1.392c-.485.29-1.032.5-1.602.61A2.518 2.518 0 008.947.445a2.522 2.522 0 00-2.523 2.523c0 .196.023.391.062.579A7.177 7.177 0 011.283.905a2.524 2.524 0 00.781 3.376 2.548 2.548 0 01-1.14-.32v.03c0 1.227.867 2.243 2.023 2.478a2.657 2.657 0 01-1.14.046c.32 1 1.25 1.727 2.359 1.75a5.052 5.052 0 01-3.133 1.078c-.21 0-.406-.009-.61-.032A7.12 7.12 0 004.3 10.445c4.64 0 7.18-3.844 7.18-7.18 0-.11 0-.218-.008-.328a5.409 5.409 0 001.265-1.305z"/></svg>