<svg xmlns="http://www.w3.org/2000/svg" width="10" height="8"><path fill="#3a3a3a" d="M9.457 1.123a3.972 3.972 0 01-1.141.306 1.97 1.97 0 00.87-1.091A3.9 3.9 0 017.93.817 1.974 1.974 0 006.482.191 1.98 1.98 0 004.5 2.173c0 .153.019.306.05.452A5.629 5.629 0 01.463.553a1.979 1.979 0 00.613 2.65 1.986 1.986 0 01-.895-.252v.024c0 .963.68 1.761 1.589 1.946a2.152 2.152 0 01-.896.036 1.984 1.984 0 001.853 1.374 3.97 3.97 0 01-2.46.847c-.166 0-.319-.007-.479-.025.878.564 1.92.89 3.043.89 3.644 0 5.637-3.019 5.637-5.638 0-.085 0-.172-.006-.257.386-.282.724-.632.994-1.025z"/></svg>