<svg xmlns="http://www.w3.org/2000/svg" width="37" height="37"><path fill="#cdbf89" d="M34.685.866c.468-.281.924-.267 1.366.041.442.32.622.75.542 1.286L31.45 33.048c-.067.389-.28.691-.643.904a1.224 1.224 0 01-.622.162c-.148 0-.308-.034-.482-.1l-10.587-4.32-5.987 6.569a1.18 1.18 0 01-.944.423c-.188 0-.342-.029-.462-.08a1.218 1.218 0 01-.603-.473 1.292 1.292 0 01-.221-.734V26.32l-9.482-3.878c-.496-.188-.764-.556-.804-1.104-.04-.523.174-.918.643-1.185zM29.18 31.02l4.44-26.578L4.812 21.055l6.75 2.752 17.337-12.836-9.603 16.011z"/><path fill="#141414" d="M34.685.866c.468-.281.924-.267 1.366.041.442.32.622.75.542 1.286L31.45 33.048c-.067.389-.28.691-.643.904a1.224 1.224 0 01-.622.162c-.148 0-.308-.034-.482-.1l-10.587-4.32-5.987 6.569a1.18 1.18 0 01-.944.423c-.188 0-.342-.029-.462-.08a1.218 1.218 0 01-.603-.473 1.292 1.292 0 01-.221-.734V26.32l-9.482-3.878c-.496-.188-.764-.556-.804-1.104-.04-.523.174-.918.643-1.185zM29.18 31.02l4.44-26.578L4.812 21.055l6.75 2.752 17.337-12.836-9.603 16.011z"/></svg>