<svg xmlns="http://www.w3.org/2000/svg" width="25" height="37"><path fill="#cdbf89" d="M12.651 8.3c-1.071 0-1.985.377-2.742 1.134a3.737 3.737 0 00-1.135 2.742c0 .562.107 1.078.321 1.547a26.085 26.085 0 00-2.651 3.315 27.698 27.698 0 00-1.487 2.51 30.69 30.69 0 00-1.386 3.126 22.47 22.47 0 00-1.085 3.736c-.255 1.279-.452 2.731-.593 4.36a25.221 25.221 0 00.07 4.971c.027.267.141.493.342.673.201.182.435.272.703.272h.1a.99.99 0 00.694-.372c.18-.222.264-.48.251-.773-.603-6.536.75-12.288 4.058-17.257a23.922 23.922 0 012.31-2.934 3.86 3.86 0 002.23.704c1.058 0 1.969-.378 2.732-1.136.764-.756 1.145-1.67 1.145-2.742 0-1.07-.378-1.985-1.135-2.742-.756-.757-1.67-1.134-2.742-1.134zm5.696-6.048C16.545 1.207 14.587.686 12.47.686c-1.58 0-3.093.307-4.54.923-1.446.617-2.692 1.448-3.736 2.491-1.045 1.045-1.879 2.29-2.501 3.737a11.413 11.413 0 00-.935 4.56c0 1.902.429 3.676 1.286 5.324.134.255.338.43.613.523a.976.976 0 00.793-.06 1.02 1.02 0 00.513-.603 1.03 1.03 0 00-.07-.805 9.666 9.666 0 01-1.045-4.379c0-1.299.254-2.544.763-3.737.509-1.191 1.192-2.216 2.05-3.073a9.658 9.658 0 013.073-2.05 9.445 9.445 0 013.736-.762c1.3 0 2.545.255 3.737.763a9.664 9.664 0 013.074 2.049c.857.857 1.54 1.882 2.049 3.073a9.434 9.434 0 01.763 3.737 9.425 9.425 0 01-.763 3.737c-.51 1.193-1.192 2.217-2.05 3.073-.857.858-1.881 1.54-3.073 2.05a9.409 9.409 0 01-3.737.763 8.807 8.807 0 01-2.17-.26 1.045 1.045 0 00-.783.15 1.025 1.025 0 00-.331 1.426c.154.249.372.405.653.471.897.189 1.774.283 2.631.283 2.116 0 4.075-.524 5.877-1.568a11.578 11.578 0 004.269-4.259c1.044-1.796 1.566-3.75 1.566-5.866 0-2.116-.522-4.075-1.566-5.877a11.558 11.558 0 00-4.27-4.268z"/><path fill="#141414" d="M12.651 8.3c-1.071 0-1.985.377-2.742 1.134a3.737 3.737 0 00-1.135 2.742c0 .562.107 1.078.321 1.547a26.085 26.085 0 00-2.651 3.315 27.698 27.698 0 00-1.487 2.51 30.69 30.69 0 00-1.386 3.126 22.47 22.47 0 00-1.085 3.736c-.255 1.279-.452 2.731-.593 4.36a25.221 25.221 0 00.07 4.971c.027.267.141.493.342.673.201.182.435.272.703.272h.1a.99.99 0 00.694-.372c.18-.222.264-.48.251-.773-.603-6.536.75-12.288 4.058-17.257a23.922 23.922 0 012.31-2.934 3.86 3.86 0 002.23.704c1.058 0 1.969-.378 2.732-1.136.764-.756 1.145-1.67 1.145-2.742 0-1.07-.378-1.985-1.135-2.742-.756-.757-1.67-1.134-2.742-1.134zm5.696-6.048C16.545 1.207 14.587.686 12.47.686c-1.58 0-3.093.307-4.54.923-1.446.617-2.692 1.448-3.736 2.491-1.045 1.045-1.879 2.29-2.501 3.737a11.413 11.413 0 00-.935 4.56c0 1.902.429 3.676 1.286 5.324.134.255.338.43.613.523a.976.976 0 00.793-.06 1.02 1.02 0 00.513-.603 1.03 1.03 0 00-.07-.805 9.666 9.666 0 01-1.045-4.379c0-1.299.254-2.544.763-3.737.509-1.191 1.192-2.216 2.05-3.073a9.658 9.658 0 013.073-2.05 9.445 9.445 0 013.736-.762c1.3 0 2.545.255 3.737.763a9.664 9.664 0 013.074 2.049c.857.857 1.54 1.882 2.049 3.073a9.434 9.434 0 01.763 3.737 9.425 9.425 0 01-.763 3.737c-.51 1.193-1.192 2.217-2.05 3.073-.857.858-1.881 1.54-3.073 2.05a9.409 9.409 0 01-3.737.763 8.807 8.807 0 01-2.17-.26 1.045 1.045 0 00-.783.15 1.025 1.025 0 00-.331 1.426c.154.249.372.405.653.471.897.189 1.774.283 2.631.283 2.116 0 4.075-.524 5.877-1.568a11.578 11.578 0 004.269-4.259c1.044-1.796 1.566-3.75 1.566-5.866 0-2.116-.522-4.075-1.566-5.877a11.558 11.558 0 00-4.27-4.268z"/></svg>