<svg xmlns="http://www.w3.org/2000/svg" width="32" height="29"><path fill="#cdbf89" d="M7.685 23.971v2.572H.613V23.97zm7.071-2.57c.348 0 .65.126.904.38.254.255.382.557.382.904v5.143c0 .349-.128.65-.382.905a1.238 1.238 0 01-.904.38H9.613a1.24 1.24 0 01-.904-.38 1.236 1.236 0 01-.381-.905v-5.143c0-.347.127-.649.381-.903.255-.255.556-.382.904-.382zm3.214-7.716v2.571H.613v-2.57zM5.113 3.4v2.57h-4.5V3.4zM31.47 23.97v2.572H16.685V23.97zM12.185.828c.348 0 .65.127.904.383.254.254.381.554.381.904v5.142c0 .348-.127.649-.381.903a1.237 1.237 0 01-.904.382H7.042c-.349 0-.65-.128-.904-.382a1.233 1.233 0 01-.382-.903V2.115c0-.35.127-.65.382-.904a1.23 1.23 0 01.904-.383zm12.857 10.286c.348 0 .65.128.904.38.254.256.382.558.382.906v5.143c0 .348-.128.65-.382.904a1.239 1.239 0 01-.904.381h-5.143a1.24 1.24 0 01-.904-.381 1.234 1.234 0 01-.382-.904V12.4c0-.348.127-.65.382-.905a1.24 1.24 0 01.904-.381zm6.428 2.571v2.571h-4.5v-2.57zm0-10.285v2.57H14.113V3.4z"/><path fill="#141414" d="M7.685 23.971v2.572H.613V23.97zm7.071-2.57c.348 0 .65.126.904.38.254.255.382.557.382.904v5.143c0 .349-.128.65-.382.905a1.238 1.238 0 01-.904.38H9.613a1.24 1.24 0 01-.904-.38 1.236 1.236 0 01-.381-.905v-5.143c0-.347.127-.649.381-.903.255-.255.556-.382.904-.382zm3.214-7.716v2.571H.613v-2.57zM5.113 3.4v2.57h-4.5V3.4zM31.47 23.97v2.572H16.685V23.97zM12.185.828c.348 0 .65.127.904.383.254.254.381.554.381.904v5.142c0 .348-.127.649-.381.903a1.237 1.237 0 01-.904.382H7.042c-.349 0-.65-.128-.904-.382a1.233 1.233 0 01-.382-.903V2.115c0-.35.127-.65.382-.904a1.23 1.23 0 01.904-.383zm12.857 10.286c.348 0 .65.128.904.38.254.256.382.558.382.906v5.143c0 .348-.128.65-.382.904a1.239 1.239 0 01-.904.381h-5.143a1.24 1.24 0 01-.904-.381 1.234 1.234 0 01-.382-.904V12.4c0-.348.127-.65.382-.905a1.24 1.24 0 01.904-.381zm6.428 2.571v2.571h-4.5v-2.57zm0-10.285v2.57H14.113V3.4z"/></svg>