<svg xmlns="http://www.w3.org/2000/svg" width="31" height="31"><path fill="#cdbf89" d="M21.536 27.307a12.643 12.643 0 01-5.494 1.236c-1.741 0-3.405-.343-4.992-1.025-1.587-.684-2.954-1.597-4.099-2.742s-2.059-2.511-2.742-4.1a12.5 12.5 0 01-1.024-4.991c0-2.879.854-5.45 2.561-7.714 1.708-2.262 3.907-3.797 6.6-4.6-1.394 2.21-2.09 4.6-2.09 7.17 0 2.44.603 4.696 1.808 6.772a13.328 13.328 0 004.922 4.92c2.076 1.208 4.332 1.81 6.77 1.81.75 0 1.487-.06 2.21-.181a12.828 12.828 0 01-4.43 3.445zm8.598-5.916a1.254 1.254 0 00-.351-.683c-.415-.416-.898-.503-1.447-.262-1.473.684-3 1.026-4.58 1.026-1.982 0-3.81-.49-5.484-1.468-1.675-.977-3-2.304-3.978-3.977-.978-1.674-1.466-3.503-1.466-5.486 0-1.54.304-3.003.914-4.388a10.686 10.686 0 012.641-3.647c.442-.414.543-.898.302-1.446-.228-.549-.637-.81-1.226-.783-2.049.08-3.991.539-5.826 1.376-1.835.837-3.412 1.938-4.73 3.305-1.32 1.366-2.365 2.983-3.135 4.85a15.277 15.277 0 00-1.155 5.877c0 2.089.409 4.085 1.226 5.987.816 1.902 1.915 3.542 3.294 4.921 1.38 1.38 3.02 2.478 4.922 3.296a15.014 15.014 0 005.987 1.225c3 0 5.769-.813 8.307-2.442 2.538-1.626 4.436-3.8 5.695-6.517.107-.242.137-.496.09-.764z"/><path fill="#141414" d="M21.536 27.307a12.643 12.643 0 01-5.494 1.236c-1.741 0-3.405-.343-4.992-1.025-1.587-.684-2.954-1.597-4.099-2.742s-2.059-2.511-2.742-4.1a12.5 12.5 0 01-1.024-4.991c0-2.879.854-5.45 2.561-7.714 1.708-2.262 3.907-3.797 6.6-4.6-1.394 2.21-2.09 4.6-2.09 7.17 0 2.44.603 4.696 1.808 6.772a13.328 13.328 0 004.922 4.92c2.076 1.208 4.332 1.81 6.77 1.81.75 0 1.487-.06 2.21-.181a12.828 12.828 0 01-4.43 3.445zm8.598-5.916a1.254 1.254 0 00-.351-.683c-.415-.416-.898-.503-1.447-.262-1.473.684-3 1.026-4.58 1.026-1.982 0-3.81-.49-5.484-1.468-1.675-.977-3-2.304-3.978-3.977-.978-1.674-1.466-3.503-1.466-5.486 0-1.54.304-3.003.914-4.388a10.686 10.686 0 012.641-3.647c.442-.414.543-.898.302-1.446-.228-.549-.637-.81-1.226-.783-2.049.08-3.991.539-5.826 1.376-1.835.837-3.412 1.938-4.73 3.305-1.32 1.366-2.365 2.983-3.135 4.85a15.277 15.277 0 00-1.155 5.877c0 2.089.409 4.085 1.226 5.987.816 1.902 1.915 3.542 3.294 4.921 1.38 1.38 3.02 2.478 4.922 3.296a15.014 15.014 0 005.987 1.225c3 0 5.769-.813 8.307-2.442 2.538-1.626 4.436-3.8 5.695-6.517.107-.242.137-.496.09-.764z"/></svg>