<svg xmlns="http://www.w3.org/2000/svg" width="37" height="31"><path fill="#cdbf89" d="M18.613 28.04L6.941 16.79c-2.504-2.504-3.756-4.883-3.756-7.132 0-1.084.143-2.042.432-2.872.287-.83.656-1.49 1.105-1.979a5.274 5.274 0 011.637-1.195 7.25 7.25 0 011.888-.624c.616-.106 1.272-.16 1.969-.16.696 0 1.446.17 2.25.513.803.341 1.543.77 2.22 1.286.676.515 1.255.997 1.738 1.446.482.448.884.86 1.205 1.235.241.295.569.441.984.441.415 0 .744-.146.985-.441.321-.374.723-.787 1.205-1.235a22.951 22.951 0 011.738-1.446 10.267 10.267 0 012.22-1.286c.803-.343 1.553-.513 2.25-.513.696 0 1.352.054 1.968.16a7.255 7.255 0 011.889.624 5.294 5.294 0 011.637 1.195c.449.49.817 1.149 1.105 1.979.288.83.432 1.788.432 2.872 0 2.25-1.26 4.634-3.777 7.152zM34.062 2.747C32.36 1.087 30.01.257 27.01.257a8.01 8.01 0 00-2.542.43c-.864.29-1.667.677-2.41 1.167A25.55 25.55 0 0020.14 3.23a18.73 18.73 0 00-1.527 1.366 18.6 18.6 0 00-1.526-1.366 25.65 25.65 0 00-1.92-1.375 10.285 10.285 0 00-2.41-1.166 8.01 8.01 0 00-2.541-.431c-3 0-5.35.83-7.051 2.49C1.464 4.41.613 6.712.613 9.657c0 .9.158 1.823.472 2.774.315.951.673 1.76 1.075 2.431a17.74 17.74 0 001.366 1.958c.509.636.88 1.075 1.115 1.317.234.24.419.415.553.521l12.535 12.094a1.2 1.2 0 00.884.362 1.2 1.2 0 00.884-.362l12.516-12.054c3.067-3.066 4.6-6.08 4.6-9.04 0-2.946-.85-5.25-2.551-6.91z"/><path fill="#141414" d="M18.613 28.04L6.941 16.79c-2.504-2.504-3.756-4.883-3.756-7.132 0-1.084.143-2.042.432-2.872.287-.83.656-1.49 1.105-1.979a5.274 5.274 0 011.637-1.195 7.25 7.25 0 011.888-.624c.616-.106 1.272-.16 1.969-.16.696 0 1.446.17 2.25.513.803.341 1.543.77 2.22 1.286.676.515 1.255.997 1.738 1.446.482.448.884.86 1.205 1.235.241.295.569.441.984.441.415 0 .744-.146.985-.441.321-.374.723-.787 1.205-1.235a22.951 22.951 0 011.738-1.446 10.267 10.267 0 012.22-1.286c.803-.343 1.553-.513 2.25-.513.696 0 1.352.054 1.968.16a7.255 7.255 0 011.889.624 5.294 5.294 0 011.637 1.195c.449.49.817 1.149 1.105 1.979.288.83.432 1.788.432 2.872 0 2.25-1.26 4.634-3.777 7.152zM34.062 2.747C32.36 1.087 30.01.257 27.01.257a8.01 8.01 0 00-2.542.43c-.864.29-1.667.677-2.41 1.167A25.55 25.55 0 0020.14 3.23a18.73 18.73 0 00-1.527 1.366 18.6 18.6 0 00-1.526-1.366 25.65 25.65 0 00-1.92-1.375 10.285 10.285 0 00-2.41-1.166 8.01 8.01 0 00-2.541-.431c-3 0-5.35.83-7.051 2.49C1.464 4.41.613 6.712.613 9.657c0 .9.158 1.823.472 2.774.315.951.673 1.76 1.075 2.431a17.74 17.74 0 001.366 1.958c.509.636.88 1.075 1.115 1.317.234.24.419.415.553.521l12.535 12.094a1.2 1.2 0 00.884.362 1.2 1.2 0 00.884-.362l12.516-12.054c3.067-3.066 4.6-6.08 4.6-9.04 0-2.946-.85-5.25-2.551-6.91z"/></svg>