<svg xmlns="http://www.w3.org/2000/svg" width="32" height="27"><path fill="#cdbf89" d="M19.899 18.506c-.442 0-.82.158-1.135.473a1.547 1.547 0 00-.472 1.134c0 .444.157.821.472 1.136.314.315.693.472 1.135.472.442 0 .82-.157 1.135-.472.315-.315.472-.692.472-1.136 0-.441-.157-.818-.472-1.134a1.546 1.546 0 00-1.135-.473zm5.143 0c-.442 0-.82.158-1.135.473a1.547 1.547 0 00-.472 1.134c0 .444.157.821.472 1.136.314.315.693.472 1.135.472.442 0 .82-.157 1.135-.472a1.55 1.55 0 00.472-1.136c0-.441-.158-.818-.472-1.134a1.546 1.546 0 00-1.135-.473zm3.666 5.274a.617.617 0 01-.452.191H3.828a.616.616 0 01-.452-.191.612.612 0 01-.191-.452V16.9a.62.62 0 01.19-.453.62.62 0 01.453-.19h24.428c.174 0 .325.064.452.19.127.128.19.279.19.453v6.428a.613.613 0 01-.19.452zM7.343 4.002a.816.816 0 01.322-.432.886.886 0 01.522-.17h15.71c.187 0 .361.056.522.17a.82.82 0 01.321.432l3.154 9.684H4.19zm19.848-.783a3.342 3.342 0 00-1.265-1.728 3.412 3.412 0 00-2.03-.663H8.187a3.41 3.41 0 00-2.028.663 3.338 3.338 0 00-1.266 1.728L.935 15.393c-.215.67-.322 1.173-.322 1.507v6.428c0 .885.315 1.64.944 2.27.63.63 1.387.944 2.27.944h24.43c.883 0 1.64-.314 2.27-.943.629-.63.943-1.386.943-2.27V16.9c0-.334-.107-.838-.321-1.507z"/><path fill="#141414" d="M19.899 18.506c-.442 0-.82.158-1.135.473a1.547 1.547 0 00-.472 1.134c0 .444.157.821.472 1.136.314.315.693.472 1.135.472.442 0 .82-.157 1.135-.472.315-.315.472-.692.472-1.136 0-.441-.157-.818-.472-1.134a1.546 1.546 0 00-1.135-.473zm5.143 0c-.442 0-.82.158-1.135.473a1.547 1.547 0 00-.472 1.134c0 .444.157.821.472 1.136.314.315.693.472 1.135.472.442 0 .82-.157 1.135-.472a1.55 1.55 0 00.472-1.136c0-.441-.158-.818-.472-1.134a1.546 1.546 0 00-1.135-.473zm3.666 5.274a.617.617 0 01-.452.191H3.828a.616.616 0 01-.452-.191.612.612 0 01-.191-.452V16.9a.62.62 0 01.19-.453.62.62 0 01.453-.19h24.428c.174 0 .325.064.452.19.127.128.19.279.19.453v6.428a.613.613 0 01-.19.452zM7.343 4.002a.816.816 0 01.322-.432.886.886 0 01.522-.17h15.71c.187 0 .361.056.522.17a.82.82 0 01.321.432l3.154 9.684H4.19zm19.848-.783a3.342 3.342 0 00-1.265-1.728 3.412 3.412 0 00-2.03-.663H8.187a3.41 3.41 0 00-2.028.663 3.338 3.338 0 00-1.266 1.728L.935 15.393c-.215.67-.322 1.173-.322 1.507v6.428c0 .885.315 1.64.944 2.27.63.63 1.387.944 2.27.944h24.43c.883 0 1.64-.314 2.27-.943.629-.63.943-1.386.943-2.27V16.9c0-.334-.107-.838-.321-1.507z"/></svg>